<svg xmlns="http://www.w3.org/2000/svg" xmlns:xlink="http://www.w3.org/1999/xlink" width="28" height="27.494" viewBox="0 0 28 27.494"><defs><clipPath id="a"><rect width="28" height="27.494" transform="translate(1500 1375)" fill="#fff" stroke="#707070" stroke-width="1"/></clipPath></defs><g transform="translate(-1500 -1375)" clip-path="url(#a)"><g transform="translate(1500 1377.819)"><g transform="translate(0 0)"><path d="M26,24.813c-.113-.851-.129-2.317.661-2.809a.3.3,0,0,0,.037-.033c.646-.207,1.094-.5.743-.887L17.909,18.21,2.47,20.357s-1.768.253-1.61,3a3.549,3.549,0,0,0,.965,2.59l-1.267.382c-.352.39.1.681.742.887a.256.256,0,0,0,.037.034c.79.493.775,1.959.661,2.81C-.84,30.864.178,31.127.178,31.127l.623.151a3.021,3.021,0,0,0-.791,2.57c.158,2.746,1.61,2.936,1.61,2.936l10.1,3.284,15.249-3.694s1.019-.263-1.82-1.069c-.114-.85-.13-2.316.662-2.81a.233.233,0,0,0,.037-.033c.646-.207,1.093-.5.742-.887l-.663-.2c.442-.267,1.106-.963,1.21-2.773a3.212,3.212,0,0,0-.629-2.4l1.31-.317S28.841,25.619,26,24.813Zm-12.755-.035,2.564-.527,8.666-1.781,1.291-.266a4.47,4.47,0,0,0-.327,2.453c.015.15.032.287.049.392l-1.413.351L13.139,28.121ZM2.232,27.45l1.291.266,8.323,1.711.727.149h0l2.18.448.108,3.343L3.618,30.57,2.51,30.295c.016-.1.034-.241.049-.392A4.471,4.471,0,0,0,2.232,27.45Zm-.5-4.227A2.168,2.168,0,0,1,2.108,21.7a.686.686,0,0,1,.5-.207.849.849,0,0,1,.127.01l6.652,2.169,3.319,1.082L12.6,28.116l-9.311-2.61L2.8,25.368a.3.3,0,0,0-.061-.009C2.7,25.356,1.775,25.271,1.73,23.224ZM11.747,38.608l-9.8-2.748a.292.292,0,0,0-.061-.01c-.039,0-.96-.087-1-2.135a2.17,2.17,0,0,1,.378-1.528.687.687,0,0,1,.5-.207.885.885,0,0,1,.127.01h0l9.97,3.251Zm12.844-3.46c.015.151.033.288.049.392L12.289,38.613,12.4,35.27l2.641-.543.39.094,1.462-.475,6.738-1.385,1.292-.266A4.466,4.466,0,0,0,24.591,35.148Zm.68-4.544a.237.237,0,0,0-.066.01l-.932.261L15.4,33.363,15.3,30l2.91-.949,7.047-2.3a.734.734,0,0,1,.642.193,2.171,2.171,0,0,1,.378,1.528C26.226,30.517,25.3,30.6,25.271,30.6Z" transform="translate(0 -18.21)" fill="#fff"/></g></g></g></svg>