<svg xmlns="http://www.w3.org/2000/svg" xmlns:xlink="http://www.w3.org/1999/xlink" width="169.175" height="194.969" viewBox="0 0 169.175 194.969"><defs><clipPath id="a"><rect width="169.175" height="194.969" transform="translate(2051 1256)" fill="#fff" stroke="#707070" stroke-width="1"/></clipPath></defs><g transform="translate(-2051 -1256)" clip-path="url(#a)"><g transform="translate(2051 1274.682)"><path d="M169.175,78.8c0-43.562-37.857-78.8-84.65-78.8C37.859,0,0,35.241,0,78.8c0,43.44,37.859,78.8,84.525,78.8,46.793,0,84.65-35.363,84.65-78.8Z" fill="#88c5cc" fill-rule="evenodd"/><path d="M67.821,53.858h64.014l14.591,59.714h-5.388l-.132,21.169h5.52v3.549H59.805c-8.282-.612-7.494-14.193-7.888-17.866L59.15,59.73c0-2.691,3.02-5.872,8.672-5.872Z" transform="translate(-14.059 -17.27)" fill="#ffd05b" fill-rule="evenodd"/><path d="M67.4,53.858h6.051L67.931,138.29H59.389c-10.12-1.1-10.382-15.908-7.232-23.984L58.733,59.73c0-2.692,3.02-5.873,8.672-5.873Z" transform="translate(-13.643 -17.27)" fill="#324a5e" fill-rule="evenodd"/><path d="M61.687,141.758H145.55a21.8,21.8,0,0,0,0,21.413H61.687c-8.94,0-8.94-21.413,0-21.413Z" transform="translate(-14.889 -45.457)" fill="#fefefe" fill-rule="evenodd"/><path d="M56.3,147.7h87.545c-.132.243-.132.489-.262.734H56.036c.132-.245.132-.491.262-.734Zm86.889,2.325a1.035,1.035,0,0,1-.132.611H55.381c0-.244.131-.367.131-.611Zm-.263,2.2a1.246,1.246,0,0,0-.131.609H54.987c.131-.122.131-.367.131-.609Zm-.131,2.324v.611H54.987v-.611Zm.131,2.2v.611H55.249a4.947,4.947,0,0,1-.132-.611Zm.394,2.2c0,.245.132.491.132.734H55.774a1.445,1.445,0,0,1-.132-.734Zm.657,2.326c0,.244.131.367.131.611H56.957c-.132-.121-.264-.244-.394-.367a.365.365,0,0,1-.132-.244Z" transform="translate(-14.89 -47.364)" fill="#ecf0f1" fill-rule="evenodd"/></g></g></svg>