<svg xmlns="http://www.w3.org/2000/svg" xmlns:xlink="http://www.w3.org/1999/xlink" width="47" height="31.784" viewBox="0 0 47 31.784"><defs><clipPath id="a"><rect width="47" height="31.784" transform="translate(98 2629)" fill="#858585" stroke="#ee6c4d" stroke-width="1"/></clipPath></defs><g transform="translate(-98 -2629)" clip-path="url(#a)"><g transform="translate(110.078 2629)"><path d="M87.945,0H70.191a4.1,4.1,0,0,0-4.1,4.1V27.315a4.475,4.475,0,0,0,4.47,4.47H87.945a.993.993,0,0,0,0-1.987H70.563a2.483,2.483,0,1,1,0-4.966H87.945a.993.993,0,0,0,.993-.993V.993A.993.993,0,0,0,87.945,0ZM68.08,23.058V4.1a2.111,2.111,0,0,1,2.111-2.111h.062a.31.31,0,0,1,.31.31V22.545a.309.309,0,0,1-.287.309,4.436,4.436,0,0,0-1.748.482A.31.31,0,0,1,68.08,23.058Z" transform="translate(-66.094)" fill="#858585"/><path d="M135.875,389.219H118.493a.993.993,0,0,0,0,1.987h17.382a.993.993,0,1,0,0-1.987Z" transform="translate(-114.024 -362.897)" fill="#858585"/></g></g></svg>