<svg xmlns="http://www.w3.org/2000/svg" xmlns:xlink="http://www.w3.org/1999/xlink" width="41.353" height="26.5" viewBox="0 0 41.353 26.5"><defs><clipPath id="a"><rect width="41.353" height="26.5" transform="translate(1964 1372)" fill="#858585" stroke="#707070" stroke-width="1"/></clipPath></defs><g transform="translate(-1964 -1372)" clip-path="url(#a)"><g transform="translate(1965.563 1372)"><g transform="translate(8.92)"><path d="M91.022,12.079a1.424,1.424,0,0,0-1.16-.485h-5.1V.828c0-.457-.571-.828-1.274-.828h-5.1c-.7,0-1.274.371-1.274.828V11.594h-5.1a1.429,1.429,0,0,0-1.16.485.615.615,0,0,0,.2.888l8.92,6.625a1.763,1.763,0,0,0,1.916,0l8.92-6.625A.615.615,0,0,0,91.022,12.079Z" transform="translate(-70.749)" fill="#858585"/></g><g transform="translate(0 18.219)"><path d="M41.974,194.562v4.969H13.941v-4.969h-5.1v6.625c0,.916,1.142,1.656,2.549,1.656H44.523c1.409,0,2.549-.74,2.549-1.656v-6.625Z" transform="translate(-8.844 -194.562)" fill="#858585"/></g></g></g></svg>