<svg xmlns="http://www.w3.org/2000/svg" xmlns:xlink="http://www.w3.org/1999/xlink" width="43.882" height="28.121" viewBox="0 0 43.882 28.121"><defs><clipPath id="a"><rect width="43.882" height="28.121" transform="translate(1964 1372)" fill="#fff" stroke="#707070" stroke-width="1"/></clipPath></defs><g transform="translate(-1964 -1372)" clip-path="url(#a)"><g transform="translate(1965.658 1372)"><g transform="translate(9.465)"><path d="M92.263,12.818a1.511,1.511,0,0,0-1.231-.515H85.623V.879c0-.485-.606-.879-1.352-.879H78.862c-.746,0-1.352.394-1.352.879V12.3H72.1a1.517,1.517,0,0,0-1.231.515.652.652,0,0,0,.214.942l9.465,7.03a1.871,1.871,0,0,0,2.034,0l9.465-7.03A.652.652,0,0,0,92.263,12.818Z" transform="translate(-70.749)"/></g><g transform="translate(0 19.333)"><path d="M44,194.563v5.273H14.253v-5.273H8.844v7.03c0,.972,1.212,1.758,2.7,1.758H46.705c1.5,0,2.7-.786,2.7-1.758v-7.03Z" transform="translate(-8.844 -194.563)"/></g></g></g></svg>