<svg xmlns="http://www.w3.org/2000/svg" xmlns:xlink="http://www.w3.org/1999/xlink" width="26.157" height="36.812" viewBox="0 0 26.157 36.812"><defs><clipPath id="a"><rect width="26.157" height="36.812" transform="translate(594 1481)" fill="#d8d8d8"/></clipPath></defs><g transform="translate(-594 -1481)" clip-path="url(#a)"><g transform="translate(594 1484.956)"><g transform="translate(0 3.388)"><path d="M63.668,45.487V37.754c0-4.418-3.458-8.256-8.207-9.124a11.508,11.508,0,0,0-4.122,0c-4.766.872-8.223,4.71-8.223,9.128v7.733Z" transform="translate(-40.314 -28.442)" fill="#d8d8d8"/><path d="M45.321,185.733h-20.9a2.793,2.793,0,0,1-2.63,1.693v1.693H47.952v-1.693A2.793,2.793,0,0,1,45.321,185.733Z" transform="translate(-21.795 -166.995)" fill="#d8d8d8"/></g><path d="M100.8,1.913a13.57,13.57,0,0,1,4.893.01c.091.017.173.052.263.071a2.871,2.871,0,0,0-5.467,0c.106-.022.2-.064.311-.083Z" transform="translate(-90.149)" fill="#d8d8d8"/><path d="M101.283,228.376a2.89,2.89,0,0,0,5.261,0Z" transform="translate(-90.835 -201.169)" fill="#d8d8d8"/></g></g></svg>