<svg xmlns="http://www.w3.org/2000/svg" xmlns:xlink="http://www.w3.org/1999/xlink" width="31" height="37.2" viewBox="0 0 31 37.2"><defs><clipPath id="a"><rect width="31" height="37.2" transform="translate(1697 1179)" fill="#fff"/></clipPath></defs><g transform="translate(-1697 -1179)" clip-path="url(#a)"><g transform="translate(1697 1188.195)"><path d="M41.429,69.555v16c7.429,0,8.81.9,11.429,2.238V71.745C51.524,70.412,49.571,69.555,41.429,69.555Zm24.286,0c-8.143,0-10.143.9-11.429,2.238v16c2.619-1.333,4-2.238,11.429-2.238ZM38.1,71.221V88.364H51.667C49.476,87.316,47.9,86.7,41.429,86.7h-1.1V71.221Zm28.762,0V86.65h-1.1c-6.476,0-8.048.619-10.238,1.667H69.1V71.174H66.857Z" transform="translate(-38.095 -69.555)" fill="#fff"/></g></g></svg>