<svg xmlns="http://www.w3.org/2000/svg" xmlns:xlink="http://www.w3.org/1999/xlink" width="40.073" height="29.271" viewBox="0 0 40.073 29.271"><defs><clipPath id="a"><rect width="40.073" height="29.271" fill="#3d5a80" stroke="#707070" stroke-width="1"/></clipPath></defs><g transform="translate(0 0)" clip-path="url(#a)"><g transform="translate(3.198)"><path d="M33.654,20.161a.987.987,0,0,0-1.316-1.13l-31.7,12.1a.987.987,0,0,0,0,1.842l8.906,3.44V47.249a.987.987,0,0,0,1.868.444l3.683-7.309,8.989,6.671a.987.987,0,0,0,1.532-.5C34,19.034,33.639,20.23,33.654,20.161Zm-7.826,3.467-15.444,11L3.739,32.061ZM11.511,36.247,24.973,26.66C13.389,38.88,13.994,38.237,13.943,38.305c-.075.1.131-.293-2.433,4.794ZM24.13,44.636l-7.912-5.872L30.524,23.672Z" transform="translate(-0.001 -18.965)" fill="#3d5a80"/></g></g></svg>