<svg xmlns="http://www.w3.org/2000/svg" width="34.483" height="35.756" viewBox="0 0 34.483 35.756"><g transform="translate(-70 121)"><g transform="translate(70 -121)" fill="none"><path d="M15.515,0C24.083,0,31.03,7.509,31.03,16.772S24.083,33.544,15.515,33.544,0,26.035,0,16.772,6.946,0,15.515,0Z" stroke="none"/><path d="M 15.51485347747803 4.000001907348633 C 9.165542602539063 4.000001907348633 4.000003814697266 9.729522705078125 4.000003814697266 16.77205276489258 C 4.000003814697266 23.81458282470703 9.165542602539063 29.54410171508789 15.51485347747803 29.54410171508789 C 21.86416244506836 29.54410171508789 27.02970314025879 23.81458282470703 27.02970314025879 16.77205276489258 C 27.02970314025879 9.729522705078125 21.86416244506836 4.000001907348633 15.51485347747803 4.000001907348633 M 15.51485347747803 3.814697265625e-06 C 24.08347320556641 3.814697265625e-06 31.02970314025879 7.509101867675781 31.02970314025879 16.77205276489258 C 31.02970314025879 26.03500366210938 24.08347320556641 33.54410171508789 15.51485347747803 33.54410171508789 C 6.946233749389648 33.54410171508789 3.814697265625e-06 26.03500366210938 3.814697265625e-06 16.77205276489258 C 3.814697265625e-06 7.509101867675781 6.946233749389648 3.814697265625e-06 15.51485347747803 3.814697265625e-06 Z" stroke="none" fill="#d8d8d8"/></g><path d="M0,0,2.781,2.547l.927.849L8.09,7.41" transform="translate(94.366 -94.866)" fill="none" stroke="#d8d8d8" stroke-width="6"/></g></svg>