<svg xmlns="http://www.w3.org/2000/svg" xmlns:xlink="http://www.w3.org/1999/xlink" width="46.83" height="27.5" viewBox="0 0 46.83 27.5"><defs><clipPath id="a"><rect width="46.83" height="27.5" transform="translate(256 2178)" fill="#fff" stroke="#707070" stroke-width="1"/></clipPath></defs><g transform="translate(-256 -2178)" clip-path="url(#a)"><g transform="translate(266.811 2178)"><path d="M239.147,15.505a3.724,3.724,0,1,1-3.724-3.724A3.724,3.724,0,0,1,239.147,15.505Zm0,0" transform="translate(-214.798 -10.922)"/><path d="M224.5,9.167a4.583,4.583,0,1,1,4.583-4.583A4.588,4.588,0,0,1,224.5,9.167Zm0-7.448a2.865,2.865,0,1,0,2.865,2.865A2.868,2.868,0,0,0,224.5,1.719Zm0,0" transform="translate(-203.876 0)"/><path d="M239.147,266.838a3.724,3.724,0,1,1-3.724-3.724A3.724,3.724,0,0,1,239.147,266.838Zm0,0" transform="translate(-214.798 -243.921)"/><path d="M224.5,260.5a4.583,4.583,0,1,1,4.583-4.583A4.588,4.588,0,0,1,224.5,260.5Zm0-7.448a2.865,2.865,0,1,0,2.865,2.865A2.868,2.868,0,0,0,224.5,253.051Zm0,0" transform="translate(-203.876 -232.999)"/><path d="M19.229,141.173a3.724,3.724,0,1,1-3.724-3.724A3.724,3.724,0,0,1,19.229,141.173Zm0,0" transform="translate(-10.922 -127.423)"/><path d="M4.583,134.834a4.583,4.583,0,1,1,4.583-4.583A4.588,4.588,0,0,1,4.583,134.834Zm0-7.448a2.865,2.865,0,1,0,2.865,2.865A2.868,2.868,0,0,0,4.583,127.386Zm0,0" transform="translate(0 -116.501)"/><path d="M85.345,74.782a1.146,1.146,0,0,1-.568-2.142l10.632-6.061a1.146,1.146,0,1,1,1.134,1.992L85.911,74.632a1.138,1.138,0,0,1-.566.15Zm0,0" transform="translate(-78.056 -61.582)"/><path d="M95.992,204.379a1.139,1.139,0,0,1-.566-.15l-10.632-6.061a1.146,1.146,0,0,1,1.134-1.991l10.632,6.061a1.146,1.146,0,0,1-.568,2.142Zm0,0" transform="translate(-78.072 -181.725)"/></g></g></svg>