<svg xmlns="http://www.w3.org/2000/svg" xmlns:xlink="http://www.w3.org/1999/xlink" width="16.907" height="22" viewBox="0 0 16.907 22"><defs><clipPath id="a"><rect width="16.907" height="22" transform="translate(710 1340)"/></clipPath></defs><g transform="translate(-710 -1340)" clip-path="url(#a)"><path d="M16.9,16.47l-.423-1.691a2.455,2.455,0,0,0-1.61-1.746L11.77,12c-.756-.315-1.1-1.532-1.177-1.994a2.929,2.929,0,0,0,1.036-1.9.574.574,0,0,1,.085-.363.352.352,0,0,0,.242-.211,5.265,5.265,0,0,0,.378-1.539.339.339,0,0,0-.011-.085.906.906,0,0,0-.342-.513V3.522a2.062,2.062,0,0,0-.712-1.87C11.2,1.105,10.614,0,8.459,0A3.673,3.673,0,0,0,4.936,3.522V5.39a.906.906,0,0,0-.342.513.339.339,0,0,0-.011.085,5.266,5.266,0,0,0,.378,1.54.3.3,0,0,0,.211.2c.039.02.113.122.113.371A2.929,2.929,0,0,0,6.327,10.01c-.074.461-.418,1.678-1.153,1.985L2.048,13.033A2.455,2.455,0,0,0,.439,14.778L.016,16.469a.352.352,0,0,0,.341.439h16.2a.352.352,0,0,0,.342-.438Z" transform="translate(709.995 1342.546)"/></g></svg>