<svg xmlns="http://www.w3.org/2000/svg" xmlns:xlink="http://www.w3.org/1999/xlink" width="45.641" height="75.167" viewBox="0 0 45.641 75.167"><defs><clipPath id="a"><rect width="45.641" height="75.168" transform="translate(-3473 -3179)" fill="#3d5a80" stroke="#707070" stroke-width="1"/></clipPath></defs><g transform="translate(3473 3179)" clip-path="url(#a)"><g transform="translate(-3473 -3163.103)"><g transform="translate(35.523 23.416)"><path d="M1071.371,732.414h-3.53a11.4,11.4,0,0,1,.556,3.536v14.945a4.888,4.888,0,0,1-.227,1.476h5.835a4.216,4.216,0,0,0,3.953-4.429v-8.147C1077.96,735.725,1075,732.414,1071.371,732.414Z" transform="translate(-1067.842 -732.414)" fill="#3d5a80"/></g><g transform="translate(0 23.416)"><path d="M9.562,735.952a11.4,11.4,0,0,1,.556-3.536H6.589C2.956,732.416,0,735.727,0,739.8v8.147a4.216,4.216,0,0,0,3.953,4.429H9.789a4.888,4.888,0,0,1-.227-1.476Z" transform="translate(0 -732.416)" fill="#3d5a80"/></g><g transform="translate(12.197 19.571)"><path d="M381.318,629.232h-8.069c-3.633,0-6.589,3.311-6.589,7.381v14.945a1.4,1.4,0,0,0,1.318,1.476h18.611a1.4,1.4,0,0,0,1.318-1.476V636.613C387.906,632.543,384.95,629.232,381.318,629.232Z" transform="translate(-366.66 -629.232)" fill="#3d5a80"/></g><g transform="translate(14.897 0)"><path d="M455.738,104.079c-4.369,0-7.924,3.982-7.924,8.877a9.1,9.1,0,0,0,4.051,7.742,7.175,7.175,0,0,0,7.745,0,9.1,9.1,0,0,0,4.051-7.742C463.661,108.061,460.107,104.079,455.738,104.079Z" transform="translate(-447.814 -104.079)" fill="#3d5a80"/></g><g transform="translate(2.981 8.274)"><path d="M95.543,326.089c-3.268,0-5.926,2.978-5.926,6.638s2.658,6.638,5.926,6.638a5.355,5.355,0,0,0,2.335-.538,6.282,6.282,0,0,0,2.894-2.982,7.236,7.236,0,0,0,.7-3.118C101.468,329.067,98.81,326.089,95.543,326.089Z" transform="translate(-89.617 -326.089)" fill="#3d5a80"/></g><g transform="translate(30.808 8.274)"><path d="M932.046,326.089c-3.267,0-5.926,2.978-5.926,6.638a7.235,7.235,0,0,0,.7,3.118,6.281,6.281,0,0,0,2.894,2.982,5.355,5.355,0,0,0,2.335.538c3.268,0,5.926-2.978,5.926-6.638S935.314,326.089,932.046,326.089Z" transform="translate(-926.12 -326.089)" fill="#3d5a80"/></g></g></g></svg>